<svg width="99" height="84" viewBox="0 0 99 84" fill="none" xmlns="http://www.w3.org/2000/svg">
<g clip-path="url(#clip0_1794_964)">
<path d="M54.6016 70.1206C48.959 70.1206 43.2896 67.2539 39.4388 62.3472C35.5478 57.3872 32.098 48.9072 35.2001 41.3739C37.9144 34.7739 44.0919 29.9739 50.9513 29.1339C59.2949 28.1206 67.9995 32.9472 71.6365 40.6272C75.1798 48.1072 73.6956 57.6672 68.0263 63.8806C64.8974 67.3072 60.846 69.4806 56.6207 70.0006C55.9521 70.0806 55.2702 70.1206 54.5883 70.1206H54.6016ZM51.9408 37.0672C47.9161 37.5606 44.2524 40.4406 42.6345 44.4006C40.9631 48.4539 43.0891 53.9872 45.7767 57.4139C48.3172 60.6672 52.2082 62.4806 55.658 62.0539C57.9444 61.7739 60.3111 60.4672 62.1162 58.4806C65.6061 54.6672 66.5688 48.5872 64.4027 44.0406C62.2366 39.4539 56.8747 36.4672 51.9408 37.0672Z" fill="#FE5068"/>
<path d="M77.6329 83.9998C76.1888 83.9998 74.6779 83.9598 73.0733 83.8798C61.641 83.2798 49.9412 83.1064 38.6293 82.9198C27.2504 82.7464 15.4972 82.5598 3.91775 81.9598L0 81.7598L1.40397 35.7331L9.42666 35.9731L8.26337 74.1598C18.4388 74.6131 28.748 74.7731 38.763 74.9198C50.1418 75.0931 61.9218 75.2798 73.5012 75.8798C78.2346 76.1331 82.139 75.8931 86.2707 75.6531C87.6746 75.5731 89.1187 75.4931 90.6163 75.4131L88.3967 25.8264C82.1657 25.7731 75.8011 25.2931 67.8586 24.2931L64.3955 23.8531L64.3553 20.3731C64.3286 17.8398 64.1548 15.1198 64.0077 12.4798C63.9141 10.9998 63.8339 9.50644 63.7536 7.99978C59.8626 7.93311 55.9182 8.09311 51.7865 8.26644C47.735 8.42644 43.5632 8.59978 39.4048 8.53311C39.3647 9.26644 39.3246 9.99978 39.2978 10.7331C39.2042 12.6264 39.0972 14.5331 39.0036 16.6798C38.8298 20.4798 38.6293 21.9864 38.1078 25.7731L37.6799 28.8398L34.5912 29.1864C27.451 29.9998 19.9899 29.3331 13.6386 28.5731L14.5879 20.6264C19.5353 21.2131 25.1511 21.7464 30.5798 21.4798C30.7804 19.8398 30.874 18.5331 30.981 16.2931C31.0746 14.1331 31.1815 12.2264 31.2751 10.3064C31.3821 8.34644 31.4757 6.39978 31.5693 4.18644L31.7565 0.133109L35.8213 0.386442C40.9157 0.693109 46.0235 0.479775 51.4388 0.266442C56.814 0.0397754 62.363 -0.186891 67.872 0.146442L71.5891 0.373109L71.6426 4.09311C71.6694 6.62644 71.8432 9.34644 71.9903 11.9864C72.0839 13.5598 72.1775 15.1598 72.2577 16.7464C79.8258 17.5998 85.9096 17.9064 92.1406 17.7998L96.045 17.7198L98.9733 83.1998L94.8549 83.2664C91.8999 83.3198 89.2658 83.4664 86.7253 83.6264C83.7168 83.7998 80.8286 83.9731 77.6195 83.9731L77.6329 83.9998Z" fill="#FE5068"/>
</g>
<defs>
<clipPath id="clip0_1794_964">
<rect width="99" height="84" fill="white"/>
</clipPath>
</defs>
</svg>
