<svg width="89" height="115" viewBox="0 0 89 115" fill="none" xmlns="http://www.w3.org/2000/svg">
<g clip-path="url(#clip0_1794_851)">
<path d="M79.4301 61.6002C78.4001 81.9202 72.1901 87.2102 58.5901 98.8002C56.2001 100.83 53.5401 103.1 50.6901 105.64C41.1801 104.64 31.8101 99.4902 24.7401 91.3002C18.1201 83.6302 13.3901 73.2002 11.0701 61.1302C9.00008 50.3802 8.94008 39.3802 9.29008 29.6902C21.5101 25.8802 33.1701 19.8802 43.3701 12.1402C53.7901 21.6502 65.1801 28.7602 78.0901 33.8002L81.4101 25.2902C68.4501 20.2202 57.1301 12.8802 46.8201 2.84023L43.9001 -0.00976562L40.7401 2.58023C29.9401 11.4402 17.1101 18.1002 3.65008 21.8402L0.460077 22.7302L0.310077 26.0402C-0.189923 37.0102 -0.369923 49.9702 2.11008 62.8702C4.73008 76.5102 10.1701 88.4102 17.8301 97.2802C26.9801 107.87 39.4501 114.29 52.0701 114.91L53.9601 115L55.3601 113.73C58.6601 110.74 61.7701 108.09 64.5201 105.75C78.7401 93.6302 87.3301 86.3102 88.5601 62.0602L79.4401 61.6002H79.4301Z" fill="#F6FBFF"/>
<path d="M40.1599 69.7899C38.3399 67.2799 36.5099 64.7499 35.6999 63.4499L27.9399 68.2599C28.9599 69.9099 30.9399 72.6299 33.0399 75.5199C34.9499 78.1499 36.9299 80.8799 37.7799 82.2399L42.5599 89.9599L45.8999 81.5199C47.2899 77.9999 48.7299 73.0399 50.2599 67.7999C52.9499 58.5299 56.2999 46.9999 59.9299 42.1299L52.6099 36.6699C47.9899 42.8599 44.5399 54.7599 41.4899 65.2499C41.0399 66.7999 40.5999 68.3199 40.1599 69.7799V69.7899Z" fill="#F6FBFF"/>
</g>
<defs>
<clipPath id="clip0_1794_851">
<rect width="88.56" height="115" fill="white"/>
</clipPath>
</defs>
</svg>
