<svg width="119" height="95" viewBox="0 0 119 95" fill="none" xmlns="http://www.w3.org/2000/svg">
<g clip-path="url(#clip0_1794_1084)">
<path d="M100.684 57.9261C95.0601 53.7345 87.2017 52.6904 80.6658 55.2629C74.8898 57.5478 70.2994 62.602 68.4755 68.5035C63.8243 67.1568 58.8387 66.8995 54.0964 67.7923C52.7436 63.9034 50.2812 60.3927 46.9676 57.9261C41.3436 53.7345 33.4853 52.6904 26.9493 55.2629C20.4134 57.8353 15.4126 63.9639 14.1814 70.849C13.771 73.1794 13.7102 73.7998 13.9534 76.2966C14.5462 82.7732 18.4222 88.8412 24.031 92.1552C27.2381 94.0467 30.9013 95 34.5797 95C37.8173 95 41.0548 94.2586 43.9884 92.7605C50.0684 89.6584 54.2636 83.6055 55.0844 76.8717C59.3251 75.9032 63.8851 76.2815 67.9131 77.9158C68.9619 83.7719 72.5946 89.1136 77.7474 92.1401C80.9546 94.0316 84.6178 94.9849 88.2961 94.9849C91.5337 94.9849 94.7713 94.2434 97.7049 92.7453C103.967 89.5525 108.254 83.2575 108.892 76.2815C109.53 69.3056 106.308 62.1026 100.684 57.911V57.9261ZM46.1012 75.4644C45.7516 79.3079 43.2892 82.9094 39.8389 84.6648C36.3885 86.4201 32.0109 86.2839 28.6821 84.3318C25.5814 82.516 23.3622 79.0356 23.043 75.4644C22.9518 74.4656 22.9974 73.4518 23.1798 72.4228C23.8486 68.6246 26.7213 65.1291 30.3237 63.7066C31.6309 63.1921 33.0445 62.95 34.4733 62.95C36.9965 62.95 39.5501 63.7218 41.526 65.2047C44.6268 67.52 46.466 71.6511 46.1164 75.4795L46.1012 75.4644ZM99.8176 75.4644C99.468 79.3079 97.0057 82.9094 93.5553 84.6648C90.1049 86.4201 85.7273 86.2839 82.3986 84.3318C79.2978 82.516 77.0938 79.0356 76.7594 75.4644C76.6682 74.4656 76.7138 73.4518 76.8962 72.4228C77.565 68.6246 80.4378 65.1291 84.0402 63.7066C85.3473 63.1921 86.7609 62.95 88.1897 62.95C90.7129 62.95 93.2665 63.7218 95.2425 65.2047C98.3433 67.52 100.182 71.6511 99.8328 75.4795L99.8176 75.4644Z" fill="#FE5068"/>
<path d="M103.465 41.1744L98.2062 14.2996C97.659 11.4699 96.6254 6.21904 92.0959 3.55577C89.6183 2.10308 86.9583 1.96689 85.0127 1.87609L48.001 0.135891C43.7906 -0.0608279 38.5466 -0.302943 33.6827 1.7399C28.7123 3.82815 24.5323 8.20136 21.9331 14.0424C19.79 18.8544 18.954 23.8178 18.1484 28.6298L27.1467 30.1279C27.8611 25.8758 28.6059 21.4723 30.2779 17.7195C31.2355 15.5707 33.4243 11.712 37.2394 10.0929C40.2034 8.85204 43.9578 9.0185 47.5754 9.20008L84.5871 10.9403C85.5751 10.9857 86.9279 11.0462 87.4751 11.364C88.4783 11.9541 89.0255 14.8141 89.2687 16.0247L93.8287 39.3283C62.6993 34.1228 30.1715 35.8782 0.0148926 44.67L2.58368 53.3861C39.3218 42.6725 79.7383 42.839 116.385 53.8401L119.015 45.1542C113.908 43.6259 108.725 42.3094 103.496 41.1744H103.465Z" fill="#FE5068"/>
</g>
<defs>
<clipPath id="clip0_1794_1084">
<rect width="119" height="95" fill="white"/>
</clipPath>
</defs>
</svg>
