<svg width="108" height="115" viewBox="0 0 108 115" fill="none" xmlns="http://www.w3.org/2000/svg">
<g clip-path="url(#clip0_1794_492)">
<path d="M62.3699 115C59.2014 115 56.0668 114.525 53.0846 113.542C43.5792 110.438 36.6661 103.11 29.9733 96.0201C24.619 90.338 19.5528 84.9781 13.5716 82.0776C12.9955 81.7893 12.4025 81.5349 11.7925 81.2635C8.70874 79.8726 4.86249 78.1595 2.32092 74.2753C-1.11868 69.0511 -0.678139 61.2148 3.33755 56.0585C6.99742 51.3601 13.0125 49.1211 19.0275 50.2067C23.8057 51.0717 28.4483 54.04 32.1251 58.5349L24.2462 64.9633C22.1113 62.3343 19.6036 60.6551 17.2145 60.2141C14.961 59.807 12.6567 60.6211 11.352 62.3004C10.0134 64.0304 9.75926 67.0666 10.8098 68.6779C11.7247 70.0858 13.6902 70.9508 15.9438 71.9685C16.6385 72.2738 17.3332 72.5961 18.0109 72.9183C25.6695 76.6499 31.6168 82.9427 37.3608 89.0319C43.4436 95.4773 49.1876 101.567 56.2362 103.873C62.9968 106.078 71.0112 104.416 77.6702 99.4294C83.9733 94.7141 89.0903 87.2679 92.4791 77.8881C95.3256 70.0518 97.0031 60.706 97.6469 49.3586C98.0197 42.5231 98.0875 34.602 95.5798 27.7495L105.119 24.2554C108.254 32.838 108.237 42.0651 107.796 49.9353C107.102 62.3004 105.221 72.5791 102.035 81.3652C97.9689 92.6108 91.6488 101.668 83.753 107.588C77.2635 112.456 69.7066 115 62.3699 115Z" fill="#FE5068"/>
<path d="M44.8338 64.132C42.5295 46.3732 32.126 30.0561 16.9951 20.4897L22.4171 11.8901C40.0726 23.0509 52.2213 42.0988 54.9154 62.826L44.8338 64.132Z" fill="#FE5068"/>
<path d="M60.2523 57.5339C56.5246 38.6047 47.6461 21.0833 34.5654 6.90339L42.0377 0C56.3891 15.5708 66.1318 34.7883 70.2153 55.5664L60.2353 57.5339H60.2523Z" fill="#FE5068"/>
<path d="M76.0438 53.1067C75.0611 38.2483 70.9098 23.4238 64.0137 10.2446L73.0278 5.5293C80.5678 19.9637 85.1257 36.179 86.1932 52.4283L76.0438 53.1067Z" fill="#FE5068"/>
</g>
<defs>
<clipPath id="clip0_1794_492">
<rect width="108" height="115" fill="white"/>
</clipPath>
</defs>
</svg>
