<svg width="120" height="124" viewBox="0 0 120 124" fill="none" xmlns="http://www.w3.org/2000/svg">
<g clip-path="url(#clip0_1794_1168)">
<path d="M114.863 36.8971C105.499 15.7885 83.7289 0.981476 60.7048 0.0517346C37.6808 -0.878007 14.777 12.1039 3.74607 32.3861L12.8011 37.3275C18.5571 26.7388 28.1962 18.5433 39.3131 14.0839C43.9179 19.9551 47.3543 26.8249 49.3475 34.039C40.8079 38.0506 34.8114 45.9018 33.1447 55.5263C32.0966 61.5352 32.887 67.4924 35.2753 72.7438C29.2615 74.1728 23.4024 76.5488 18.1447 79.734C17.2856 80.2506 15.5674 81.3008 13.9866 82.9365C10.1206 73.1053 9.20999 62.0689 12.0279 51.9967L2.09659 49.2075C-4.31235 72.1067 4.48491 98.0362 23.5055 112.258C33.7117 119.902 46.3921 124.017 59.1756 124.017C61.7014 124.017 64.2444 123.862 66.7701 123.535C81.8217 121.572 96.0657 113.687 105.859 101.893C120.602 84.1417 124.227 58.0229 114.863 36.9143V36.8971ZM60.2753 10.365C77.1825 11.0537 93.2478 20.7127 102.183 35.0204C96.1172 36.5871 90.4471 39.7379 85.8251 44.0079C79.9488 35.5024 69.4849 30.716 59.2787 31.4219C57.3028 24.1906 54.0897 17.252 49.8457 11.0709C53.2822 10.4683 56.7701 10.2272 60.2581 10.365H60.2753ZM43.2822 57.2997C44.4677 50.4816 48.9694 45.0237 55.2925 42.7165C57.2169 42.0106 59.2615 41.6835 61.3062 41.6835C67.9729 41.6835 74.7598 45.2303 78.0932 51.0154C82.4746 58.591 80.5846 69.3347 73.9179 74.9648C67.234 80.5949 56.3578 80.6121 49.6567 74.9992C44.4849 70.6777 42.1138 64.049 43.2822 57.2997ZM65.4299 113.274C52.8011 114.926 39.7598 111.517 29.6567 103.976C24.7598 100.309 20.6705 95.6085 17.5433 90.3055L20.9626 90.6671C20.9626 90.6671 21.2375 89.9268 23.4712 88.5666C28.9523 85.2436 35.2066 82.9709 41.5296 82.0067L41.4437 81.4902C41.9591 81.9895 42.4918 82.4716 43.0416 82.9365C48.2993 87.3441 55.0176 89.5308 61.7529 89.5308C63.4368 89.5308 65.1206 89.393 66.7873 89.1175L78.3165 109.761C74.1928 111.5 69.8457 112.705 65.4299 113.274ZM97.9213 95.2642C94.8801 98.9315 91.3062 102.151 87.3887 104.82L76.6327 85.588C78.0072 84.796 79.3131 83.9007 80.5502 82.8504C88.6774 75.9978 92.1997 64.7032 90.1894 54.4244C94.2959 49.2936 100.361 45.6952 106.822 44.5932C112.801 61.5008 109.416 81.4213 97.9213 95.2469V95.2642Z" fill="white"/>
</g>
<defs>
<clipPath id="clip0_1794_1168">
<rect width="120" height="124" fill="white"/>
</clipPath>
</defs>
</svg>
