<svg width="146" height="59" viewBox="0 0 146 59" fill="none" xmlns="http://www.w3.org/2000/svg">
<g clip-path="url(#clip0_1794_644)">
<path d="M136.199 47.4473L146 47.2358L145.461 22.9752H145.233L145.2 21.4131L54.8197 23.5121C52.1081 12.0571 42.3889 2.81492 30.5789 0.536931C20.6637 -1.38309 10.5851 1.95254 4.93332 9.06313L12.6107 15.1324C15.9756 10.9181 22.4442 8.90042 28.7167 10.1208C36.7044 11.6665 43.5323 18.1263 45.3128 25.8389C47.1096 33.6329 43.614 42.3381 37.0148 46.5361C30.4482 50.7178 20.876 49.9856 15.2405 44.8927C9.53972 39.7347 8.08593 30.3298 12.0063 23.9189L3.64287 18.8422C-2.71134 29.2234 -0.506153 43.8513 8.65764 52.1335C13.6887 56.6732 20.484 59.0163 27.2956 59.0163C32.5554 59.0163 37.8152 57.6332 42.2909 54.7857C49.5762 50.1483 54.3459 41.9313 55.3424 33.2912L114.638 31.9244L115.291 42.6147L125.075 42.0289L124.438 31.7129L135.84 31.4525L136.199 47.4961V47.4473Z" fill="#FE5068"/>
</g>
<defs>
<clipPath id="clip0_1794_644">
<rect width="146" height="59" fill="white"/>
</clipPath>
</defs>
</svg>
