<svg width="108" height="115" viewBox="0 0 108 115" fill="none" xmlns="http://www.w3.org/2000/svg">
  <!-- Add shadow filter -->
  <defs>
    <filter id="shadow" x="-50%" y="-50%" width="200%" height="200%">
      <feDropShadow dx="4" dy="4" stdDeviation="4" flood-color="rgba(0, 0, 0, 0.3)" />
    </filter>
  </defs>

  <g filter="url(#shadow)">
    <path d="M62.3702 115C59.2017 115 56.0671 114.525 53.085 113.541C43.5795 110.437 36.6664 103.11 29.9736 96.0199C24.6194 90.3377 19.5532 84.9779 13.572 82.0774C12.9959 81.7891 12.4029 81.5346 11.7929 81.2633C8.70911 79.8724 4.86286 78.1593 2.32129 74.2751C-1.11831 69.0509 -0.677773 61.2146 3.33792 56.0583C6.99778 51.3599 13.0128 49.1209 19.0279 50.2065C23.8061 51.0715 28.4487 54.0398 32.1255 58.5346L24.2466 64.9631C22.1117 62.3341 19.604 60.6549 17.2149 60.2139C14.9614 59.8068 12.657 60.6209 11.3523 62.3001C10.0138 64.0302 9.75963 67.0664 10.8101 68.6777C11.7251 70.0855 13.6906 70.9506 15.9441 71.9683C16.6388 72.2736 17.3335 72.5959 18.0113 72.9181C25.6699 76.6497 31.6172 82.9425 37.3611 89.0317C43.444 95.4771 49.1879 101.566 56.2366 103.873C62.9972 106.078 71.0116 104.416 77.6705 99.4292C83.9736 94.7139 89.0907 87.2677 92.4794 77.8879C95.326 70.0516 97.0034 60.7057 97.6473 49.3584C98.0201 42.5229 98.0878 34.6018 95.5801 27.7493L105.12 24.2552C108.254 32.8378 108.237 42.0649 107.797 49.9351C107.102 62.3001 105.221 72.5789 102.036 81.365C97.9692 92.6106 91.6492 101.668 83.7534 107.588C77.2639 112.456 69.7069 115 62.3702 115Z" fill="#FE5068"/>
    <path d="M44.8334 64.132C42.529 46.3732 32.1255 30.056 16.9947 20.4897L22.4167 11.8901C40.0722 23.0509 52.2209 42.0988 54.915 62.826L44.8334 64.132Z" fill="#FE5068"/>
    <path d="M60.2523 57.5339C56.5246 38.6047 47.6461 21.0833 34.5654 6.90339L42.0377 0C56.3891 15.5708 66.1318 34.7883 70.2153 55.5664L60.2353 57.5339H60.2523Z" fill="#FE5068"/>
    <path d="M76.0439 53.1069C75.0612 38.2485 70.9099 23.424 64.0138 10.2448L73.0279 5.5295C80.5679 19.9639 85.1258 36.1792 86.1933 52.4285L76.0439 53.1069Z" fill="#FE5068"/>
  </g>
</svg>