<svg width="80" height="115" viewBox="0 0 80 115" fill="none" xmlns="http://www.w3.org/2000/svg">
<g clip-path="url(#clip0_1794_807)">
<path d="M44.9421 100.177L45.0992 89.2795C47.3901 88.5574 49.2883 87.0607 50.3225 85.065C51.3698 83.03 51.5269 80.601 50.7938 77.8833C50.0476 75.0998 48.6207 72.7628 46.6963 71.1479C42.782 67.8656 37.7943 67.9049 34.299 71.2661C30.9869 74.4434 29.4814 80.4829 33.2255 85.4195C34.299 86.8243 35.6997 87.9272 37.2707 88.6756L37.1005 100.072L44.9552 100.19L44.9421 100.177ZM39.7056 76.9642C39.8758 76.8066 40.0852 76.5966 40.4256 76.5966C40.7136 76.5966 41.1064 76.741 41.6431 77.2005C42.3238 77.7651 42.8737 78.7498 43.2009 79.9446C43.502 81.0474 43.3319 81.4544 43.3319 81.4544C43.2664 81.5595 42.9129 81.7827 42.3893 81.8614C41.3158 82.0059 40.0983 81.5201 39.4438 80.6535C38.3965 79.275 38.9594 77.6732 39.6925 76.9642H39.7056Z" fill="#FE5068"/>
<path d="M80 65.7912C79.9738 59.3403 79.5985 55.7297 78.8742 54.9595L77.7745 53.791L75.2348 53.6859C71.5169 53.5415 66.9612 53.3577 61.8949 53.1739V30.552C61.8949 25.5497 61.2404 20.6262 59.9313 15.9259C57.5618 7.40495 53.7261 3.12478 46.6961 1.15537C36.6421 -1.66744 28.3947 1.18163 21.4433 4.07009C13.9028 7.19488 13.3006 15.3088 12.5413 25.576C12.4104 27.4141 12.2533 29.3835 12.07 31.4579V59.6992H19.9116V59.6073C38.0036 60.1456 58.9756 60.9465 72.1191 61.4585C72.1453 66.2507 72.1846 74.0495 72.0929 75.5332V106.991C47.6387 106.61 27.0201 106.413 7.85469 106.387V62.1675H0V114.252H3.92734C25.1874 114.252 48.0838 114.462 75.9548 114.921L79.9476 114.987V75.8614C79.9738 75.3231 80.0393 73.6294 80 65.7781V65.7912ZM54.0403 52.885C43.2008 52.478 31.026 52.0579 19.9116 51.7165V31.9962C20.0949 29.9349 20.2389 27.9918 20.3829 26.1537C21.0375 17.252 21.5218 12.5517 24.4543 11.3438C30.45 8.84918 36.9432 6.60406 44.5884 8.74414C48.4111 9.82075 50.5449 11.475 52.3646 18.0529C53.4773 22.0573 54.0403 26.2718 54.0403 30.5651V52.8982V52.885Z" fill="#FE5068"/>
</g>
<defs>
<clipPath id="clip0_1794_807">
<rect width="80" height="115" fill="white"/>
</clipPath>
</defs>
</svg>
