<svg width="106" height="116" viewBox="0 0 106 116" fill="none" xmlns="http://www.w3.org/2000/svg">
<path d="M80.8526 93C76.2667 86.2081 67.1923 81.6748 57.7277 81.4853C48.2793 81.2957 38.8797 85.4341 33.8709 92.0365L26 86.4292C32.8301 77.3943 45.3196 71.7554 57.9228 72.0082C70.5098 72.2767 82.7065 78.4842 89 87.8034L80.8363 93H80.8526Z" fill="#FE5068"/>
<path d="M51.9055 71C44.5266 71 37.2444 67.7941 32.8783 62.3912C27.6422 55.8981 26.4822 45.5317 30.075 37.1671C33.1361 30.0067 39.2422 25.5965 46.7983 25.0595C54.9505 24.4736 63.4732 28.2491 69.0799 34.8725C74.0743 40.7798 76.0721 48.2169 74.4449 54.7264C72.4471 62.6679 65.1165 69.0634 56.191 70.6094C54.7733 70.8535 53.3394 70.9837 51.9216 70.9837L51.9055 71ZM48.4577 34.7749C48.1355 34.7749 47.8133 34.7749 47.4911 34.8074C43.4794 35.1003 40.6116 37.1996 38.9522 41.0565C36.8417 45.9711 37.47 52.627 40.3861 56.2235C43.3666 59.9176 49.3277 61.9193 54.5477 61.008C59.6066 60.1292 64.0371 56.4839 65.0682 52.3341C65.9382 48.8841 64.6815 44.7181 61.7171 41.2192C58.3499 37.2322 53.2266 34.7749 48.4416 34.7749H48.4577Z" fill="#FE5068"/>
<path d="M54.8597 116C39.2082 116 24.014 110.064 13.8193 99.6565C0.487699 86.0424 -3.74378 65.0786 3.52652 48.6693L12.4796 52.6812C6.90843 65.2759 10.4047 82.1127 20.7955 92.7343C30.6635 102.797 46.3477 107.762 61.7542 105.691C73.5174 104.096 83.5161 98.6699 89.218 90.7777C95.2629 82.4086 96.3412 71.8363 96.1615 64.4373C95.8348 50.2642 91.0315 36.9789 82.6665 27.0478C73.8768 16.607 61.0354 10.1946 48.341 9.89862C35.1401 9.58621 22.1189 16.1631 15.2243 26.6368L7.05547 21.1944C15.7798 7.92555 32.0686 -0.427073 48.586 0.0168662C64.0415 0.378594 79.5787 8.08998 90.1656 20.6518C99.9846 32.3093 105.588 47.765 105.981 64.1907C106.275 76.9827 103.236 88.1634 97.1581 96.5653C89.8878 106.628 77.4548 113.501 63.0613 115.441C60.3328 115.803 57.5881 115.984 54.8597 115.984V116Z" fill="#FE5068"/>
</svg>
