<svg width="82" height="115" viewBox="0 0 82 115" fill="none" xmlns="http://www.w3.org/2000/svg">
<g clip-path="url(#clip0_1794_738)">
<path d="M53.5601 115L51.9101 114.87C44.9801 114.31 38.8201 112.55 33.0901 109.5C27.4201 106.49 22.1501 102.25 17.8301 97.25C10.1701 88.38 4.73008 76.48 2.11008 62.85C-0.369923 49.95 -0.189923 37 0.310077 26.03L0.460077 22.73L3.65008 21.84C17.1101 18.1 29.9401 11.44 40.7501 2.59L43.9101 0L46.8301 2.85C53.4201 9.27 60.6401 14.72 68.2701 19.05C72.4501 21.42 76.8701 23.52 81.4101 25.3L78.0901 33.81C73.1501 31.88 68.3301 29.59 63.7701 27C56.5801 22.92 49.7301 17.93 43.3901 12.15C33.1901 19.89 21.5401 25.89 9.32008 29.7C8.97008 39.39 9.04008 50.39 11.1001 61.13C13.4201 73.2 18.1401 83.62 24.7601 91.29C28.3501 95.44 32.7201 98.95 37.4001 101.44C41.5601 103.65 46.0201 105.02 51.0101 105.6C55.8701 101.92 59.9901 97.48 63.2701 92.37C67.4701 85.84 70.1801 78.28 71.1001 70.5L80.1701 71.58C79.0801 80.72 75.8901 89.61 70.9501 97.3C66.7301 103.87 61.3401 109.5 54.9301 114.04L53.5801 115H53.5601Z" fill="#FE5068"/>
<path d="M38.4597 71.9798C37.4497 67.1798 39.1397 61.9498 42.7797 58.6498C43.7497 57.7698 44.7597 57.0998 45.6397 56.5198C46.1097 56.2098 46.5797 55.8998 47.0297 55.5598C48.7797 54.1998 49.9497 52.1798 50.1397 50.1498C50.3297 48.1798 49.5497 46.1298 48.1697 44.9398C46.3797 43.3998 43.2797 43.3098 41.4097 44.7498C39.5297 46.1898 38.8197 49.1998 39.8497 51.3298L31.6297 55.2998C28.7097 49.2498 30.5197 41.5998 35.8597 37.4998C41.1897 33.4098 49.0497 33.6298 54.1397 38.0198C57.7497 41.1298 59.7097 46.1098 59.2397 51.0098C58.8097 55.5698 56.3997 59.8598 52.6397 62.7798C52.0197 63.2598 51.3597 63.6998 50.6997 64.1398C50.0197 64.5898 49.3797 65.0098 48.9297 65.4298C47.6897 66.5498 47.0697 68.4798 47.4097 70.1098L38.4697 71.9898L38.4597 71.9798Z" fill="#FE5068"/>
<path d="M41.52 90.0099C41.43 89.1399 41.36 87.5499 41.26 85.0399C41.19 83.3599 41.1 81.2799 41.04 80.6099L50.13 79.6899C50.22 80.5599 50.29 82.1499 50.39 84.6599C50.46 86.3399 50.55 88.4199 50.61 89.0899L41.52 90.0099Z" fill="#FE5068"/>
</g>
<defs>
<clipPath id="clip0_1794_738">
<rect width="81.4" height="115" fill="white"/>
</clipPath>
</defs>
</svg>
