<svg width="115" height="117" viewBox="0 0 115 117" fill="none" xmlns="http://www.w3.org/2000/svg">
<g clip-path="url(#clip0_1794_784)">
<path d="M9.72996 23.6098L0.959961 23.0998L2.21996 1.5498L7.13996 2.4898C13.53 3.7098 20.04 3.8998 26.48 3.0698L27.62 11.7798C21.9 12.5298 16.14 12.5598 10.42 11.8798L9.72996 23.5998V23.6098Z" fill="#FE5068"/>
<path d="M112.57 21.15L103.78 20.87L104.16 9.06L92.6804 9.41V9.49L90.7204 9.46L90.6504 0.67L113.25 0L112.57 21.15Z" fill="#FE5068"/>
<path d="M1.12988 116.09L1.92988 91.8799L10.7099 92.1599L10.2199 107.27L23.3099 107.22L23.4099 116.01L1.12988 116.09Z" fill="#FE5068"/>
<path d="M115 113.68L89.2803 110.49L90.3603 101.77L105.5 103.64L104.73 92.35L113.5 91.75L115 113.68Z" fill="#FE5068"/>
<path d="M33.54 63.8298C22.34 63.8298 11.15 63.6098 0 63.1798L0.34 54.3998C36.32 55.8098 72.73 54.9098 108.58 51.7598L109.35 60.5098C84.24 62.7198 58.86 63.8298 33.54 63.8298Z" fill="#FE5068"/>
<path d="M26.7799 51.1399L19.6299 46.0299C26.9799 35.7499 38.3199 28.5499 50.7499 26.2699C63.1699 23.9899 76.3399 26.6899 86.8599 33.6799C91.6299 36.8499 94.9299 40.3099 96.9699 44.2699L89.1499 48.2899C87.8199 45.6999 85.4699 43.3099 81.9899 40.9999C73.3499 35.2599 62.5399 33.0399 52.3299 34.9099C42.1199 36.7899 32.8099 42.6999 26.7799 51.1399Z" fill="#FE5068"/>
<path d="M52.0605 49.6102L43.7305 46.8002C45.9505 40.2102 52.3505 35.3002 59.2905 34.8602C66.2305 34.4302 73.2005 38.4902 76.2305 44.7602L68.3205 48.5902C66.8305 45.5002 63.2705 43.4302 59.8405 43.6402C56.4205 43.8502 53.1505 46.3702 52.0505 49.6202L52.0605 49.6102Z" fill="#FE5068"/>
<path d="M55.7004 84.5598C53.3704 84.5598 51.0404 84.3298 48.7504 83.8598C36.8904 81.3998 26.5604 72.4498 22.4404 61.0598L30.7004 58.0698C33.8104 66.6498 41.6004 73.3998 50.5304 75.2598C59.4804 77.1198 69.2904 74.0198 75.5604 67.3798L81.9504 73.4098C75.2404 80.5198 65.4504 84.5698 55.6904 84.5698L55.7004 84.5598Z" fill="#FE5068"/>
</g>
<defs>
<clipPath id="clip0_1794_784">
<rect width="115" height="116.09" fill="white"/>
</clipPath>
</defs>
</svg>
