<svg width="82" height="115" viewBox="0 0 82 115" fill="none" xmlns="http://www.w3.org/2000/svg">
<g clip-path="url(#clip0_1794_708)">
<path d="M53.5601 115L51.9101 114.87C44.9801 114.31 38.8201 112.55 33.0901 109.5C27.4201 106.49 22.1501 102.25 17.8301 97.25C10.1701 88.38 4.73008 76.48 2.11008 62.85C-0.369923 49.95 -0.189923 37 0.310077 26.03L0.460077 22.73L3.65008 21.84C17.1101 18.1 29.9401 11.44 40.7501 2.59L43.9101 0L46.8301 2.85C53.4201 9.27 60.6401 14.72 68.2701 19.05C72.4501 21.42 76.8701 23.52 81.4101 25.3L78.0901 33.81C73.1501 31.88 68.3301 29.59 63.7701 27C56.5801 22.92 49.7301 17.93 43.3901 12.15C33.1901 19.89 21.5401 25.89 9.32008 29.7C8.97008 39.39 9.04008 50.39 11.1001 61.13C13.4201 73.2 18.1401 83.62 24.7601 91.29C28.3501 95.44 32.7201 98.95 37.4001 101.44C41.5601 103.65 46.0201 105.02 51.0101 105.6C55.8701 101.92 59.9901 97.48 63.2701 92.37C67.4701 85.84 70.1801 78.28 71.1001 70.5L80.1701 71.58C79.0801 80.72 75.8901 89.61 70.9501 97.3C66.7301 103.87 61.3401 109.5 54.9301 114.04L53.5801 115H53.5601Z" fill="#FE5068"/>
<path d="M50.1792 33.0001L41 33.1577L41.6142 69.1932L50.7934 69.0356L50.1792 33.0001Z" fill="#FE5068"/>
<path d="M41.8164 76.6246L41.7529 83.6421L50.9331 83.7257L50.9966 76.7083L41.8164 76.6246Z" fill="#FE5068"/>
</g>
<defs>
<clipPath id="clip0_1794_708">
<rect width="81.4" height="115" fill="white"/>
</clipPath>
</defs>
</svg>
